<svg xmlns="http://www.w3.org/2000/svg" xmlns:xlink="http://www.w3.org/1999/xlink" id="Layer_1" x="0px" y="0px" viewBox="0 0 200 100" style="enable-background:new 0 0 200 100;" xml:space="preserve">
<style type="text/css">
	.st0{fill:#0A3670;}
	.st1{fill:#02B2CB;}
	.st2{fill:#09356F;}
	.st3{fill:#0C3771;}
</style>
<g>
	<path class="st0" d="M159.3,100c-0.9-0.4-1.8-0.3-2.7-0.6c-0.5-0.1-0.8-0.3-0.7-1c0.2-1.2,0.2-2.5,0.3-3.7c0-0.5,0.2-0.6,0.7-0.5   c1.4,0.3,2.9,0.5,4.3,0.1c2.3-0.6,3.6-3.1,2.8-5.3c-3.2-8.7-6.3-17.4-9.5-26.1c-0.1-0.3-0.3-0.6-0.2-1c2.4,0,4.7,0,7.1,0   c0.6,0,0.5,0.5,0.7,0.8c1.8,5.3,3.5,10.6,5.3,15.9c0.3,0.8,0.6,1.7,0.9,2.8c0.8-2.4,1.5-4.5,2.2-6.7c1.3-4,2.6-7.9,3.9-11.9   c0.2-0.7,0.5-0.9,1.2-0.9c1.8,0.1,3.6,0,5.4,0c0.5,0,0.7,0,0.5,0.6c-3.9,10.2-7.7,20.4-11.6,30.6c-0.5,1.3-1.2,2.5-2.1,3.6   c-1.4,1.7-3.2,2.7-5.4,3c-0.2,0-0.4-0.1-0.5,0.2C161,100,160.2,100,159.3,100z"></path>
	<path class="st1" d="M115.1,43.5c-0.2,0.3-0.5,0.2-0.7,0.2c-13.5,0-26.9,0-40.4,0c-0.1,0-0.2,0-0.5-0.1C87.4,29,101.1,14.5,114.9,0   c0.3,0.4,0.2,0.7,0.2,1.1c0,7.4,0,14.8,0,22.2c0,0.4,0,0.8,0,1.3C115.1,30.8,115.1,37.2,115.1,43.5z"></path>
	<path class="st2" d="M62.7,65.2c0.4-0.1,0.5-0.3,0.6-0.5c4-5.1,13.8-4.4,16.8,2.2c1.5,3.3,1.8,6.7,1.6,10.2   c-0.2,2.2-0.6,4.2-1.5,6.2c-3.5,7.7-14,7-17.3,2.3c-0.1-0.1-0.1-0.2-0.2-0.3c-0.1,0-0.2,0.1-0.2,0.1c0,0.8,0,1.7,0,2.5   c0,0.4-0.1,0.6-0.5,0.6c-1.9,0-3.8,0-5.7,0c-0.4,0-0.5-0.1-0.5-0.5c0-0.2,0-0.4,0-0.6c0-12.1,0-24.3,0-36.4c0-0.9,0.2-1.2,1.1-1.1   c1.6,0.1,3.3,0.1,4.9,0c0.7,0,0.9,0.2,0.9,0.9c0,4.6,0,9.2,0,13.8C62.7,64.8,62.7,65,62.7,65.2z M74.7,75.2c0-1.8-0.3-3.5-1-5.2   c-0.8-1.8-2.1-3-4.2-3.2c-2.2-0.2-4,0.7-5.1,2.6c-2.2,3.9-2.2,7.9-0.1,11.8c1,1.8,2.7,2.7,4.8,2.6c2.1-0.1,3.5-1.2,4.4-3   C74.4,78.9,74.6,77.1,74.7,75.2z"></path>
	<path class="st2" d="M108.5,81.5c0,1.7,0,3.4,0,5.1c0,0.4-0.3,0.6-0.6,0.7c-5.2,2.3-10.5,2.6-15.7,0.3c-3.2-1.4-5.1-4-6-7.3   c-1-3.6-0.9-7.2,0.2-10.8c1.8-5.7,6.7-8.7,12.7-8.2c1.7,0.2,3.4,0.4,4.9,1.2c3.4,1.6,5,4.6,5.8,8.1c0.4,1.9,0.6,3.9,0.6,5.9   c0,0.7-0.2,0.8-0.8,0.8c-5.5,0-11,0-16.5,0c-0.9,0-1,0.3-0.9,1.1c0.6,3.2,3,5.3,6.3,5.6c3.2,0.3,6.1-0.6,8.9-2.1   C107.8,81.8,108.1,81.5,108.5,81.5z M98.1,72.6c1.7,0,3.4,0,5.2,0c0.3,0,0.6,0.1,0.6-0.4c0.1-2.3-1.7-5-3.9-5.5   c-3.8-1-7.3,1.3-7.8,5.3c-0.1,0.6,0.1,0.8,0.7,0.7C94.7,72.6,96.4,72.6,98.1,72.6z"></path>
	<path class="st0" d="M18.4,70.5c0-5.7,0-11.3,0-17c0-0.8,0.2-1,1-1c1.8,0.1,3.5,0.1,5.3,0c0.8,0,1,0.2,1,1c0,9.3,0,18.7,0,28   c0,1.3,0,1.3,1.3,1.3c3.9,0,7.9,0,11.8,0c0.7,0,0.9,0.2,0.9,0.9c-0.1,1.4,0,2.7,0,4.1c0,0.5-0.1,0.7-0.7,0.7c-6.6,0-13.2,0-19.8,0   c-0.8,0-0.7-0.4-0.7-0.9C18.4,81.9,18.4,76.2,18.4,70.5z"></path>
	<path class="st3" d="M145.2,54.5c0,2.3,0,4.4,0,6.6c0,0.7,0.1,1,0.9,0.9c1.5-0.1,2.9,0,4.4,0c0.7,0,0.9,0.2,0.9,0.9   c-0.1,1.1-0.1,2.3,0,3.4c0,0.7-0.2,0.8-0.8,0.8c-1.5,0-3.1,0-4.6,0c-0.6,0-0.7,0.2-0.7,0.7c0,4,0,7.9,0,11.9c0,3.5,1.9,4.9,5.3,3.8   c0.9-0.3,1.1-0.1,1.1,0.8c0,1.2,0,2.5,0.1,3.7c0,0.4-0.1,0.7-0.5,0.7c-2.3,0.5-4.7,0.7-7.1,0.2c-3.3-0.7-5.5-3.3-5.8-6.8   c-0.3-3.3-0.1-6.7-0.1-10.1c0-1.4,0-2.7,0-4.1c0-0.7-0.1-0.9-0.9-0.9c-1.2,0.1-2.3,0-3.5,0c-0.6,0-0.8-0.2-0.8-0.8   c0-1.2,0-2.3,0-3.5c0-0.6,0.1-0.8,0.8-0.8c1.2,0,2.4,0,3.6,0c0.6,0,0.8-0.2,0.8-0.8c0-1.3,0-2.6,0-3.9c0-0.4,0.1-0.7,0.5-0.8   C140.9,55.8,143,55.2,145.2,54.5z"></path>
	<path class="st3" d="M121.2,67.4c0.7-1.8,1.7-3.4,3.2-4.6c1.6-1.3,3.5-1.8,5.6-1.4c0.4,0.1,0.6,0.2,0.6,0.6c0,1.9,0,3.8,0,5.8   c0,0.5-0.2,0.6-0.6,0.4c-0.4-0.1-0.8-0.2-1.2-0.3c-3-0.4-5,0.8-6,3.7c-0.5,1.5-0.7,3-0.7,4.6c0,3.7-0.1,7.5,0,11.2c0,0.8-0.2,1-1,1   c-1.8-0.1-3.5,0-5.3,0c-0.5,0-0.7-0.1-0.7-0.7c0-8.4,0-16.7,0-25.1c0-0.5,0.1-0.8,0.7-0.7c1.6,0,3.2,0,4.8,0c0.6,0,0.7,0.2,0.7,0.7   C121.2,64.3,121.2,65.8,121.2,67.4z"></path>
	<path class="st2" d="M50.6,75.2c0,4.1,0,8.3,0,12.4c0,0.7-0.1,0.9-0.8,0.9c-1.8-0.1-3.6,0-5.4,0c-0.6,0-0.7-0.2-0.7-0.7   c0-8.4,0-16.7,0-25.1c0-0.6,0.2-0.7,0.8-0.7c1.8,0,3.5,0,5.3,0c0.7,0,0.8,0.2,0.8,0.9C50.6,67,50.6,71.1,50.6,75.2z"></path>
	<path class="st2" d="M115.1,43.5c0-6.3,0-12.7,0-19c5.9,0,11.9,0,17.8,0c0,0.4-0.2,0.5-0.3,0.6c-5.7,6-11.4,12.1-17.1,18.1   C115.4,43.3,115.2,43.4,115.1,43.5z"></path>
	<path class="st0" d="M47.1,59.2c-2.4,0-4.2-1.9-4.2-4.3c0-2.3,1.9-4.1,4.2-4.2c2.3,0,4.2,1.9,4.2,4.2   C51.4,57.4,49.5,59.3,47.1,59.2z"></path>
</g>
</svg>